PathFileType	4	(X/Y/Z)	Patient4_TMGait_0pt7_02_left_22.trc.trc
DataRate	CameraRate	NumFrames	NumMarkers	Units	OrigDataRate	OrigDataStartFrame	OrigNumFrames
89.743589743590	89.743589743590	4	33	mm	89.743589743590	124	       141
Frame#	Time	Sacral			L.Shoulder			Chest			R.Shoulder			Neck			R.ASIS			L.ASIS			R.Thigh.Superior			R.Thigh.Lateral			R.Thigh.Inferior			R.Patella			L.Thigh.Superior			L.Thigh.Lateral			L.Thigh.Inferior			L.Patella			L.Shank.Superior			L.Shank.Lateral			L.Shank.Inferior			R.Shank.Superior			R.Shank.Lateral			R.Shank.Inferior			R.Heel			R.Midfoot.Superior			R.Midfoot.Lateral			R.Toe			L.Heel			L.Midfoot.Lateral			L.Midfoot.Superior			L.Toe			L.Elbow			L.Wrist			R.Elbow			R.Wrist			
		X1	Y1	Z1	X2	Y2	Z2	X3	Y3	Z3	X4	Y4	Z4	X5	Y5	Z5	X6	Y6	Z6	X7	Y7	Z7	X8	Y8	Z8	X9	Y9	Z9	X10	Y10	Z10	X11	Y11	Z11	X12	Y12	Z12	X13	Y13	Z13	X14	Y14	Z14	X15	Y15	Z15	X16	Y16	Z16	X17	Y17	Z17	X18	Y18	Z18	X19	Y19	Z19	X20	Y20	Z20	X21	Y21	Z21	X22	Y22	Z22	X23	Y23	Z23	X24	Y24	Z24	X25	Y25	Z25	X26	Y26	Z26	X27	Y27	Z27	X28	Y28	Z28	X29	Y29	Z29	X30	Y30	Z30	X31	Y31	Z31	X32	Y32	Z32	X33	Y33	Z33	

124	26.390571428571	853.963470666454	1002.758346047555	517.419333555884	1028.903024487964	1421.294307494680	325.132800331597	1147.791326463417	1345.488758363964	472.447355743439	1088.262496832392	1422.266291670285	653.748256747814	1048.943022331446	1479.292272799890	480.426117036837	1077.775671576572	930.657635453391	628.310626476471	1059.416417503461	940.787394453009	352.679159252031	1063.460928039970	716.387969009336	607.601811109044	948.569342767167	630.216208367046	664.964295869334	1007.462588008231	559.430499401443	588.948986648535	982.394651836045	474.715765712626	592.484321670309	1132.703016531828	764.373180817851	389.224072029929	1089.912611225378	634.808338873939	307.162133275813	1196.291378323338	581.221211465265	368.756377140450	1223.941333787880	514.513977993258	365.588973789141	1207.833509880016	440.438964568851	354.120004598806	1140.059236082979	311.228269612820	304.338313601943	1226.834416496057	211.933936057373	358.501980310733	938.251979877281	394.575217762627	597.145234956869	847.463392666091	305.386334150505	656.721374188314	874.009726230592	204.936525326998	592.580594333838	718.635260498129	50.593755173778	557.855478085948	892.997488903105	97.648992709888	593.036081843576	802.376543179570	38.640980168550	630.503309646233	1010.548426664920	39.128806823070	617.676440858311	1140.741029663262	39.113180242843	396.951632424757	1213.044794425053	41.860567294394	314.978336208251	1288.384147807667	112.439434908963	337.451015121634	1419.890093350089	74.794210050720	307.503036511023	833.022252168901	1137.961864910278	231.294540721759	734.946959587221	898.439292148571	236.523427456892	1262.930874815100	1134.015637851523	753.388544989216	1425.478688607361	1266.502257482734	620.383363748030	
125	26.401714285714	855.152766397550	1001.678522125568	513.814605411439	1030.409575430759	1420.353508186020	322.196670968585	1148.730257802947	1345.066834009942	470.285505351392	1087.707812862834	1421.807021525968	651.077620080463	1049.331468934836	1478.498373705818	477.499220435661	1078.749217871145	929.583133821366	626.108024188520	1061.844045076828	939.861963962921	350.631753002060	1064.405764315246	715.138646776617	605.923771931302	948.915162206673	629.390834000972	662.920460434599	1008.017940120959	558.006173459625	587.494261492609	982.160480752218	472.720230345899	590.926580821840	1134.335129098346	761.502892358125	387.596371232381	1089.040268232729	632.225665552134	307.196518164131	1195.069601077933	578.105391192061	369.193373189752	1221.090271070989	510.573681897526	367.025569252297	1204.473600584260	436.620818601237	355.197880996595	1135.418468670070	308.100853124679	305.557526268029	1220.407406669872	207.975111335405	360.673925930439	936.516317948063	393.220646483398	595.865841479257	844.053922452483	305.895769134813	655.721784547490	868.719548949871	204.740433109775	592.111496882354	711.050982250010	52.232870332151	558.126093001793	885.603816494389	97.693963457964	593.006122063974	794.737260582039	39.321697833463	630.783736944511	1002.837121721365	38.770782374259	617.752066382549	1130.792359206278	37.893826410610	398.997045326839	1203.488464187039	39.174191791496	317.178197254360	1280.643853465418	107.289957850477	340.588939085664	1411.557657620815	66.011782835648	311.015888849181	833.610065599073	1138.189775319065	229.078368220348	732.670294888832	899.671729400286	235.717935179229	1265.349301309495	1136.001894047046	751.299485435163	1419.950771694502	1276.318988128989	617.790838565919	
126	26.412857142857	856.204510025990	1000.910458734707	510.266528356515	1031.992395630612	1419.600889277454	319.201761697929	1149.747129035273	1344.782072978513	468.044404838438	1087.390990837141	1421.559251196503	648.364234678860	1049.932117376465	1477.948753166663	474.465654939070	1079.698389080073	928.722244479409	623.744006336475	1063.994084321767	939.275908570082	348.434491962389	1065.486276298373	714.130600480975	604.075923380762	949.564398060642	628.686000330934	660.773040716001	1008.973653819436	556.734507219384	585.964971408054	982.426208160890	470.747427820113	589.404363346101	1136.012814079823	759.505607746788	385.805068859521	1088.764754406724	630.670394877473	306.712622526702	1194.317229167229	576.010226480013	369.264454857067	1218.806237832480	507.641120145923	367.916237293490	1201.730030201978	433.701025137254	355.760344917452	1131.530574517986	305.946841381307	305.866342545537	1214.421301924921	204.892788851818	362.139274844154	935.131376289115	391.989610239714	594.622351290148	840.903657142559	306.662377109937	654.706320538034	863.665153731606	204.772779309364	591.702220875331	703.558148343316	54.322630139045	558.446364491602	878.420279359559	97.850380158746	593.077370573877	787.164178150815	40.199737692135	631.065205686127	995.146213616741	38.425634336845	617.808893019904	1121.242773431413	37.230987837349	400.185146538027	1194.371487628108	37.314572205375	318.588336440863	1273.081196664196	103.242836133510	343.004635146186	1403.495212599261	58.803761660442	313.907952110107	835.150697282585	1137.775592389218	226.716930581915	731.773130449552	900.103904830871	234.505238829367	1267.093877249355	1137.558428539869	749.521008534124	1414.208105285167	1284.713029456338	615.695075872861	
127	26.424000000000	857.145934776060	1000.506347499686	506.818303934294	1033.611183445500	1419.098141833937	316.198145687432	1150.822044692390	1344.666475908416	465.738801753960	1087.359958567926	1421.562027840804	645.638162956605	1050.740443996966	1477.689347264537	471.384995808114	1080.607797270369	928.127539026958	621.205978825104	1065.835785303751	939.069084250673	346.044719247555	1066.642258450205	713.423943909913	602.042121093605	950.498514225139	628.156698500251	658.559866552864	1010.310803233246	555.677866022140	584.390985354586	983.205411897338	468.852575954387	588.024434362313	1137.695410697174	758.490693467469	383.834500271508	1089.135105990948	630.170712525759	305.653029030778	1194.032106364191	574.919652199677	368.854139842695	1217.114824279236	505.706590182067	368.118841096600	1199.608619597312	431.659332783251	355.759983645440	1128.369888567928	304.726214119279	305.305027530266	1208.893282502632	202.674957101678	362.905622666168	934.106825066648	390.940275987886	593.492837676406	838.021582424031	307.747340290295	653.726515502414	858.883591674316	205.093675497328	591.408660773558	696.195355946918	56.943969712636	558.834999113669	871.500638493551	98.137059283053	593.288632816177	779.681212064794	41.312452331210	631.352871148041	987.477354407788	38.103452572747	617.841157383531	1112.234602442625	37.019735097577	400.658866762473	1185.774900151874	36.189578662738	319.302325445129	1265.723919269320	100.325014139237	344.661764856420	1395.738214218706	53.332054383244	316.057012205545	837.575286042486	1136.799474556433	224.187715246223	732.327993834439	899.725003539521	232.838036662228	1268.088954172827	1138.629294291323	748.045615677267	1408.327852248928	1291.683128847080	614.062840202220	
